<?xml version="1.0" standalone="no"?>
<!DOCTYPE svg PUBLIC "-//W3C//DTD SVG 20010904//EN" "http://www.w3.org/TR/2001/REC-SVG-20010904/DTD/svg10.dtd">
<svg version="1.0" xmlns="http://www.w3.org/2000/svg" width="135.000000pt" height="135.000000pt"
    viewBox="0 0 135.000000 135.000000" preserveAspectRatio="xMidYMid meet">
    <g transform="translate(0.000000,135.000000) scale(0.100000,-0.100000)" fill="#467fcf" stroke="none">
        <path d="M520 1327 c-127 -39 -201 -85 -296 -182 -58 -60 -116 -144 -111 -159
2 -6 15 -10 28 -9 13 2 51 6 85 9 77 8 155 -13 216 -60 44 -34 46 -34 62 -17
9 10 42 31 74 47 49 25 68 29 142 29 90 0 156 -22 208 -69 20 -18 25 -19 45
-6 97 62 132 75 207 75 41 0 87 -3 103 -8 24 -7 27 -5 27 16 0 44 -94 158
-185 227 -125 93 -234 128 -405 129 -103 0 -138 -4 -200 -22z" />
        <path d="M1093 868 c-28 -31 -41 -84 -48 -198 -8 -112 -39 -216 -91 -298 -121
-188 -347 -291 -564 -257 -24 3 -48 9 -52 11 -3 2 -9 0 -12 -5 -8 -13 39 -45
121 -84 l68 -32 205 0 c229 0 247 4 365 79 110 69 225 197 225 250 0 25 0 25
-30 8 -23 -13 -34 -14 -47 -6 -28 17 -27 50 4 138 24 71 28 94 27 191 -1 61
-4 119 -7 130 -3 11 -6 23 -6 27 -1 3 -13 20 -27 37 -21 26 -33 31 -68 31 -31
0 -48 -6 -63 -22z" />
        <path d="M155 864 c-81 -42 -115 -100 -115 -197 0 -52 5 -71 28 -108 44 -68
87 -96 157 -105 61 -7 114 9 162 51 110 94 93 265 -34 346 -39 24 -58 29 -107
29 -36 0 -74 -7 -91 -16z" />
        <path d="M630 864 c-75 -32 -121 -104 -122 -188 -1 -122 85 -215 207 -222 82
-4 163 45 200 122 19 41 19 124 -1 172 -45 109 -177 163 -284 116z" />
        <path d="M427 404 c-78 -54 -172 -72 -258 -50 -56 15 -67 8 -40 -21 162 -173
426 -205 627 -75 70 45 111 91 93 103 -7 4 -23 3 -36 -2 -80 -30 -206 -10
-285 46 -26 19 -49 35 -51 34 -1 -1 -24 -16 -50 -35z" />
    </g>
</svg>